<svg xmlns="http://www.w3.org/2000/svg" viewBox="0 0 512 512"><mask id="a" x="0" y="0" width="512" height="512"><circle cx="256" cy="256" r="256" fill="#FFF"/></mask><g mask="url(#a)"><path fill="#D80055" d="M0 0h512v512H0z"/><path d="M425.472 146.944L87.552 365.056l145.97 146.97H512V233l-86.528-86.056z" fill="#C2004C"/><path d="M418.816 154.112H96.256c-5.632 0-9.728 4.608-9.728 9.728v195.584c0 5.632 4.608 9.728 9.728 9.728h322.56c5.632 0 9.728-4.608 9.728-9.728V163.84c0-5.12-4.608-9.728-9.728-9.728z" fill="#0FA3A8"/><path d="M96.256 144.384c-5.632 0-9.728 4.608-9.728 9.728v195.584c0 5.632 4.608 9.728 9.728 9.728h322.56c5.632 0 9.728-4.608 9.728-9.728V154.112c0-5.12-4.608-9.728-9.728-9.728H96.256z" fill="#D0D1D8"/><path d="M121.344 144.384l17.92 33.792h236.032l17.92-33.792H121.344zm280.917 48.47H111.446c-5.632 0-10.752 5.12-10.752 11.263V332.63c0 6.143 4.608 11.263 10.752 11.263H402.26c5.633 0 10.753-5.12 10.753-11.264V204.116c-.512-6.144-5.12-11.264-10.752-11.264z" fill="#0FA3A8"/><path d="M338.26 242.347H178.006c-14.336 0-26.112 11.776-26.112 26.112 0 14.335 11.776 26.11 26.112 26.11H338.26c14.337 0 26.113-11.775 26.113-26.11 0-14.337-11.776-26.113-26.112-26.113z" fill="#D0D1D8"/><path d="M393.216 334.848H121.344c-5.632 0-9.728-4.608-9.728-9.728v-9.728c0-5.632 4.608-9.728 9.728-9.728h271.872c5.632 0 9.728 4.608 9.728 9.728v9.728c.512 5.12-4.096 9.728-9.728 9.728z" fill="#F5F6F8"/><path d="M406.016 177.152c3.676 0 6.656-2.98 6.656-6.656 0-3.676-2.98-6.656-6.656-6.656-3.676 0-6.656 2.98-6.656 6.656 0 3.676 2.98 6.656 6.656 6.656zm-296.96 0c3.676 0 6.656-2.98 6.656-6.656 0-3.676-2.98-6.656-6.656-6.656-3.676 0-6.656 2.98-6.656 6.656 0 3.676 2.98 6.656 6.656 6.656zm228.352 110.25c11.028 0 19.968-8.94 19.968-19.967 0-11.028-8.94-19.968-19.968-19.968s-19.968 8.94-19.968 19.968 8.94 19.968 19.968 19.968zm-158.72 0c11.028 0 19.968-8.94 19.968-19.967 0-11.028-8.94-19.968-19.968-19.968s-19.968 8.94-19.968 19.968 8.94 19.968 19.968 19.968z" fill="#092324"/></g></svg>