<svg xmlns="http://www.w3.org/2000/svg" viewBox="0 0 512 512"><mask id="a" x="0" y="0" width="512" height="512"><circle cx="256" cy="256" r="256" fill="#fff"/></mask><g mask="url(#a)"><rect fill="#D80055" width="512" height="512"/><path d="M425.472 146.944l-337.92 218.112 145.971 146.971h278.477v-279.027l-86.528-86.056z" fill="#C2004C"/><path d="M418.816 154.112h-322.56c-5.632 0-9.728 4.608-9.728 9.728v195.584c0 5.632 4.608 9.728 9.728 9.728h322.56c5.632 0 9.728-4.608 9.728-9.728v-195.584c0-5.12-4.608-9.728-9.728-9.728z" fill="#0FA3A8"/><path d="M96.256 144.384c-5.632 0-9.728 4.608-9.728 9.728v195.584c0 5.632 4.608 9.728 9.728 9.728h322.56c5.632 0 9.728-4.608 9.728-9.728v-195.584c0-5.12-4.608-9.728-9.728-9.728h-322.56z" fill="#D0D1D8"/><path d="M121.344 144.384l17.92 33.792h236.032l17.92-33.792h-271.872zm280.917 48.469h-290.816c-5.632 0-10.752 5.12-10.752 11.264v128.512c0 6.144 4.608 11.264 10.752 11.264h290.816c5.632 0 10.752-5.12 10.752-11.264v-128.512c-.512-6.144-5.12-11.264-10.752-11.264z" fill="#0FA3A8"/><path d="M338.261 242.347h-160.256c-14.336 0-26.112 11.776-26.112 26.112 0 14.336 11.776 26.112 26.112 26.112h160.256c14.336 0 26.112-11.776 26.112-26.112 0-14.336-11.776-26.112-26.112-26.112z" fill="#D0D1D8"/><path d="M393.216 334.848h-271.872c-5.632 0-9.728-4.608-9.728-9.728v-9.728c0-5.632 4.608-9.728 9.728-9.728h271.872c5.632 0 9.728 4.608 9.728 9.728v9.728c.512 5.12-4.096 9.728-9.728 9.728z" fill="#F5F6F8"/><path d="M406.016 177.152c3.676 0 6.656-2.98 6.656-6.656 0-3.676-2.98-6.656-6.656-6.656-3.676 0-6.656 2.98-6.656 6.656 0 3.676 2.98 6.656 6.656 6.656zm-296.96 0c3.676 0 6.656-2.98 6.656-6.656 0-3.676-2.98-6.656-6.656-6.656-3.676 0-6.656 2.98-6.656 6.656 0 3.676 2.98 6.656 6.656 6.656zm228.352 110.251c11.028 0 19.968-8.94 19.968-19.968s-8.94-19.968-19.968-19.968-19.968 8.94-19.968 19.968 8.94 19.968 19.968 19.968zm-158.72 0c11.028 0 19.968-8.94 19.968-19.968s-8.94-19.968-19.968-19.968-19.968 8.94-19.968 19.968 8.94 19.968 19.968 19.968z" fill="#092324"/></g></svg>