<svg xmlns="http://www.w3.org/2000/svg" viewBox="0 0 512 512"><mask id="a" x="0" y="0" width="512" height="512"><circle cx="256" cy="256" r="256" fill="#fff"/></mask><g mask="url(#a)"><path fill="#C4D2C8" d="M0 0h512v512H0z"/><g transform="translate(94 51)"><path d="M2.768 314.568l315.904-210.944 99.32 99.32V460.67H148.87L2.767 314.567z" fill="#B0BCB3"/><path d="M58.064 340.168h205.824l12.288-22.528h-230.4l12.288 22.528z" fill="#092324"/><rect fill="#0FA3A8" x="-.133" y="100.893" width="320.853" height="216.747" rx="5"/><rect fill="#092324" x="23.76" y="123.08" width="209.92" height="170.667" rx="19"/><rect fill="#D0D1D8" x="37.413" y="135.027" width="182.613" height="148.48" rx="16"/><path d="M37.413 234.694v-72.347c0-15.106 12.218-27.32 27.29-27.32h128.034c6.535 0 12.537 2.303 17.238 6.143-70.825 3.835-133.112 39.776-172.562 93.524z" fill="#F5F6F8"/><path d="M279.76 199.88c8.483 0 15.36-6.877 15.36-15.36s-6.877-15.36-15.36-15.36-15.36 6.877-15.36 15.36 6.877 15.36 15.36 15.36zm0-46.08c8.483 0 15.36-6.877 15.36-15.36s-6.877-15.36-15.36-15.36-15.36 6.877-15.36 15.36 6.877 15.36 15.36 15.36z" fill="#D0D1D8"/><path d="M279.76 194.76c5.655 0 10.24-4.585 10.24-10.24s-4.585-10.24-10.24-10.24-10.24 4.585-10.24 10.24 4.585 10.24 10.24 10.24zm0-46.08c5.655 0 10.24-4.585 10.24-10.24s-4.585-10.24-10.24-10.24-10.24 4.585-10.24 10.24 4.585 10.24 10.24 10.24zm25.088 144.896h-53.76c-1.536 0-2.56-1.024-2.56-2.56v-2.56c0-1.536 1.024-2.56 2.56-2.56h54.272c1.536 0 2.56 1.024 2.56 2.56v2.56c-.512 1.536-1.536 2.56-3.072 2.56zm0-20.48h-53.76c-1.536 0-2.56-1.024-2.56-2.56v-2.56c0-1.536 1.024-2.56 2.56-2.56h54.272c1.536 0 2.56 1.024 2.56 2.56v2.56c-.512 1.536-1.536 2.56-3.072 2.56zm0-20.48h-53.76c-1.536 0-2.56-1.024-2.56-2.56v-2.56c0-1.536 1.024-2.56 2.56-2.56h54.272c1.536 0 2.56 1.024 2.56 2.56v2.56c-.512 1.536-1.536 2.56-3.072 2.56zm0-20.48h-53.76c-1.536 0-2.56-1.024-2.56-2.56v-2.56c0-1.536 1.024-2.56 2.56-2.56h54.272c1.536 0 2.56 1.024 2.56 2.56v2.56c-.512 1.536-1.536 2.56-3.072 2.56zM137.936 101.064c0-12.8 10.24-23.04 23.04-23.04 12.8 0 23.04 10.24 23.04 23.04h-46.08z" fill="#092324"/><path d="M145.616 85.192L60.112-.312m116.224 85.504L261.84-.312" stroke="#092324" stroke-width="2"/></g></g></svg>