<svg xmlns="http://www.w3.org/2000/svg" width="189" height="65"><path d="M100.153 49.19c-.402 2.597-1.609 4.818-3.701 6.688-2.091 1.886-4.425 2.844-7.079 2.844-2.655 0-4.746-.959-6.275-2.844-1.529-1.87-2.092-4.091-1.77-6.688l1.368-9.468h9.493c2.574 0 4.666.895 6.275 2.749 1.448 1.845 2.011 4.123 1.689 6.719zm79.521-16.206c-4.422 0-8.361 1.564-11.978 4.685-1.769 1.556-3.217 3.259-4.261 5.114-.482-1.864-1.447-3.574-2.733-5.114-2.734-3.121-6.271-4.685-10.693-4.685-2.412 0-4.824.576-7.235 1.694-2.413 1.119-4.583 2.618-6.351 4.588-1.287-1.969-2.975-3.517-4.985-4.636-2.091-1.086-4.342-1.646-6.834-1.646-4.422 0-8.441 1.564-11.979 4.685-2.681 2.348-4.565 5.019-5.624 8.054-.154-3.066-1.238-5.753-3.219-8.079-2.734-3.088-6.351-4.661-10.773-4.661h-9.406l.161-1.24c.321-1.832-.081-3.437-1.286-4.766-1.045-1.329-2.549-1.978-4.381-1.978l-1.182 8.211h-7.131c-4.333 0-8.345 1.548-12.035 4.636-.973.811-1.841 1.653-2.613 2.553-.434-.9-.973-1.743-1.632-2.553-2.524-3.088-5.973-4.636-10.307-4.636h-9.213c-.33 1.734 0 3.21.973 4.433.981 1.224 2.323 1.848 4.052 1.848h3.015c2.581 0 4.599.932 6.054 2.813 1.455 1.88 1.946 4.134 1.455 6.735-.491 2.61-1.809 4.831-3.972 6.687-2.163 1.848-4.559 2.788-7.131 2.788h-3.015c-1.729 0-3.304.6-4.751 1.823-1.447 1.224-2.34 2.691-2.661 4.434h9.245c4.333 0 8.321-1.524 12.011-4.588.965-.802 1.841-1.662 2.605-2.561.434.9.997 1.759 1.664 2.561 2.524 3.064 5.941 4.588 10.274 4.588h9.246c.33-1.743 0-3.21-.981-4.434-.981-1.224-2.347-1.823-4.068-1.823h-2.991c-2.589 0-4.615-.94-6.078-2.788-1.471-1.856-1.962-4.077-1.463-6.687.491-2.602 1.825-4.855 3.996-6.735 2.171-1.88 4.558-2.813 7.139-2.813h3.015c1.68 0 3.224-.608 4.647-1.775l-1.632 11.25c-.651 4.442.378 8.203 3.111 11.315 2.669 3.161 6.263 4.717 10.604 4.717 4.422 0 8.441-1.556 12.059-4.717 2.308-1.985 4.024-4.237 5.133-6.758l-1.676 11.476c1.849 0 3.537-.624 4.985-1.954 1.527-1.305 2.412-2.885 2.653-4.758l1.367-9.248c.403-2.658 1.608-4.936 3.698-6.865 2.09-1.88 4.502-2.812 7.075-2.812 2.653 0 4.744.932 6.271 2.812 1.527 1.929 2.09 4.207 1.688 6.865l-1.286 9.248c-.322 1.84.16 3.38 1.286 4.71 1.125 1.321 2.572 2.002 4.422 2.002l2.331-15.959c.322-2.658 1.608-4.936 3.698-6.865 2.09-1.88 4.422-2.812 7.075-2.812 2.573 0 4.663.932 6.19 2.812 1.528 1.929 2.171 4.207 1.769 6.865l-1.367 9.248c-.242 1.84.161 3.38 1.287 4.71 1.125 1.321 2.573 2.002 4.421 2.002l1.126-7.473c.482.98 1.045 1.913 1.849 2.788 2.734 3.121 6.271 4.685 10.612 4.685h9.406c.241-1.759-.161-3.266-1.206-4.515-1.046-1.232-2.493-1.848-4.181-1.848h-3.055c-2.654 0-4.744-.956-6.271-2.837-1.607-1.873-2.171-4.126-1.849-6.76.402-2.658 1.689-4.936 3.779-6.865 2.09-1.88 4.503-2.812 7.075-2.812h3.055c1.769 0 3.376-.656 4.824-1.896 1.366-1.24 2.171-2.707 2.412-4.483h-9.326zm-164.908-26.808c0 1.883-.662 3.361-1.986 4.436-1.324 1.074-3.15 1.611-5.479 1.611h-1.828l-1.277 6.094h-3.574l3.621-17.133h4.781c1.891 0 3.32.418 4.289 1.254.969.836 1.453 2.082 1.453 3.738zm-8.648 3.07h1.465c1.109 0 1.982-.27 2.619-.809.637-.539.955-1.262.955-2.168 0-.727-.189-1.26-.568-1.6-.379-.34-.947-.51-1.705-.51h-1.688l-1.078 5.086zm13.277 9.305c-1.148 0-2.053-.416-2.713-1.248-.66-.832-.99-1.998-.99-3.498 0-1.547.281-3.021.844-4.424.563-1.402 1.301-2.488 2.215-3.258.914-.77 1.918-1.154 3.012-1.154.758 0 1.412.164 1.963.492.551.328.979.805 1.283 1.43h.094l.668-1.676h2.719l-2.789 13.102h-2.637l.164-1.699h-.094c-1.047 1.289-2.293 1.934-3.738 1.934zm1.383-2.848c.539 0 1.059-.262 1.559-.785s.902-1.232 1.207-2.127c.305-.895.457-1.908.457-3.041 0-.555-.15-1.014-.451-1.377-.301-.363-.697-.545-1.189-.545-.531 0-1.037.281-1.518.844-.48.563-.863 1.305-1.148 2.227-.285.922-.428 1.836-.428 2.742 0 .688.131 1.203.393 1.547.262.344.635.516 1.119.516zm17.988-10.734c.461 0 .836.043 1.125.129l-.773 3.398c-.352-.125-.742-.188-1.172-.188-.906 0-1.701.357-2.385 1.072-.684.715-1.17 1.74-1.459 3.076l-1.242 5.859h-3.527l2.777-13.102h2.695l-.246 2.426h.129c1.133-1.781 2.492-2.672 4.078-2.672zm6.258 10.734c.508 0 1.141-.137 1.898-.41v2.637c-.867.414-1.906.621-3.117.621-1.172 0-2.033-.246-2.584-.738-.551-.492-.826-1.254-.826-2.285 0-.391.047-.828.141-1.313l1.348-6.316h-1.781l.34-1.723 2.297-.984 1.547-2.766h2.273l-.574 2.789h3.316l-.586 2.684h-3.305l-1.348 6.316c-.047.234-.07.441-.07.621 0 .578.344.867 1.031.867zm5.016-10.488h3.457l.656 6.07c.094.82.141 1.965.141 3.434h.094c.156-.398.328-.865.516-1.4.188-.535.441-1.135.762-1.799l3.047-6.305h3.832l-7.969 14.977c-1.383 2.594-3.27 3.891-5.66 3.891-.703 0-1.277-.074-1.723-.223v-2.813c.531.102.984.152 1.359.152.656 0 1.232-.187 1.729-.563.496-.375.955-.957 1.377-1.746l.305-.574-1.922-13.102zm21.105 8.777l6.434-12.809h4.957l-3.621 17.133h-3.281l1.699-8.109c.281-1.32.707-3.043 1.277-5.168h-.105l-6.668 13.277h-3.293l-.715-13.277h-.094c-.172 1.422-.477 3.191-.914 5.309l-1.676 7.969h-3.223l3.621-17.133h4.734l.762 12.809h.105zm24.258-3.832c0 1.648-.275 3.109-.826 4.383-.551 1.273-1.346 2.26-2.385 2.959-1.039.699-2.273 1.049-3.703 1.049-1.523 0-2.74-.459-3.65-1.377-.91-.918-1.365-2.139-1.365-3.662 0-1.664.279-3.146.838-4.447.559-1.301 1.365-2.309 2.42-3.023 1.055-.715 2.289-1.072 3.703-1.072 1.531 0 2.742.461 3.633 1.383.891.922 1.336 2.191 1.336 3.809zm-3.551 0c0-1.539-.559-2.309-1.676-2.309-.586 0-1.111.238-1.576.715-.465.477-.844 1.176-1.137 2.098-.293.922-.439 1.871-.439 2.848 0 1.445.586 2.168 1.758 2.168.586 0 1.113-.24 1.582-.721.469-.48.834-1.148 1.096-2.004.262-.855.393-1.787.393-2.795zm9.363 8.391c-1.148 0-2.053-.418-2.713-1.254-.66-.836-.99-2.008-.99-3.516 0-1.531.279-2.994.838-4.389.559-1.395 1.295-2.48 2.209-3.258.914-.777 1.922-1.166 3.023-1.166.641 0 1.193.145 1.658.434.465.289.904.785 1.318 1.488h.094l.023-.328c.047-.859.145-1.621.293-2.285l.891-4.195h3.527l-3.867 18.234h-2.684l.211-1.699h-.094c-.555.68-1.135 1.172-1.74 1.477-.605.305-1.271.457-1.998.457zm1.477-2.848c.547 0 1.051-.248 1.512-.744.461-.496.846-1.236 1.154-2.221.309-.984.463-1.934.463-2.848 0-.625-.146-1.125-.439-1.5-.293-.375-.693-.563-1.201-.563-.531 0-1.037.281-1.518.844-.48.563-.863 1.305-1.148 2.227-.285.922-.428 1.836-.428 2.742 0 1.375.535 2.063 1.605 2.063zm14.262 2.848c-1.641 0-2.914-.441-3.82-1.324-.906-.883-1.359-2.129-1.359-3.738 0-1.617.322-3.092.967-4.424.645-1.332 1.518-2.348 2.619-3.047 1.102-.699 2.348-1.049 3.738-1.049 1.383 0 2.461.318 3.234.955.773.637 1.16 1.51 1.16 2.619 0 1.461-.652 2.588-1.957 3.381-1.305.793-3.168 1.189-5.59 1.189h-.598l-.023.246v.234c0 .711.201 1.271.604 1.682.402.41.979.615 1.729.615.68 0 1.297-.074 1.852-.223.555-.148 1.227-.41 2.016-.785v2.66c-1.344.672-2.867 1.008-4.57 1.008zm1.922-11.039c-.688 0-1.336.312-1.945.938-.609.625-1.008 1.387-1.195 2.285h.527c1.211 0 2.154-.189 2.83-.568.676-.379 1.014-.893 1.014-1.541 0-.742-.41-1.113-1.23-1.113zm-112.234 29.133h-2.705v9.355h-1.758v-9.355h-1.875v-.82l1.875-.605v-.615c0-1.302.285-2.279.854-2.93.57-.651 1.447-.977 2.632-.977.684 0 1.377.12 2.08.361l-.469 1.377c-.605-.195-1.136-.293-1.592-.293-.592 0-1.032.195-1.318.586-.286.391-.43 1.009-.43 1.855v.693h2.705v1.367zm11.26 3.975c0 1.751-.443 3.118-1.328 4.102-.885.983-2.109 1.475-3.672 1.475-.97 0-1.829-.226-2.578-.679-.749-.452-1.325-1.102-1.729-1.948-.404-.846-.605-1.829-.605-2.949 0-1.745.436-3.104 1.309-4.077.872-.973 2.096-1.46 3.672-1.46 1.51 0 2.71.496 3.599 1.489.889.993 1.333 2.342 1.333 4.048zm-8.096 0c0 1.348.265 2.371.796 3.071.531.7 1.313 1.05 2.349 1.05 1.022 0 1.8-.35 2.334-1.05.534-.7.801-1.724.801-3.071 0-1.348-.269-2.362-.806-3.042-.537-.68-1.323-1.021-2.358-1.021-2.077 0-3.115 1.354-3.115 4.063zm15.879-5.537c.475 0 .895.039 1.26.117l-.215 1.621c-.397-.091-.785-.137-1.162-.137-.566 0-1.092.156-1.577.469-.485.313-.864.744-1.138 1.294-.273.55-.41 1.16-.41 1.831v5.723h-1.758v-10.723h1.445l.195 1.963h.078c.41-.71.895-1.247 1.455-1.611.56-.365 1.169-.547 1.826-.547z" fill="#A3B6CC"/></svg>