<svg xmlns="http://www.w3.org/2000/svg" version="1.1" width="512" height="512" viewBox="0 0 512 512">
  <mask id="mask" x="0" y="0" width="512" height="512" >
    <circle cx="256" cy="256" r="256" fill="#FFFFFF" />
  </mask>
  <g mask="url(#mask)">
    <rect fill="#D80055" x="0" y="0" width="512" height="512"></rect>
    <g transform="translate(87.000000, 144.000000)">
      <path d="M338.472,2.944 L0.552,221.056 L146.522828,368.026828 L424.999998,368.026825 L424.999998,88.9999998 L338.472,2.944 Z" fill="#C2004C"></path>
      <path d="M331.816,10.112 L9.256,10.112 C3.624,10.112 -0.472,14.72 -0.472,19.84 L-0.472,215.424 C-0.472,221.056 4.136,225.152 9.256,225.152 L36.392,225.152 L331.816,225.152 C337.448,225.152 341.544,220.544 341.544,215.424 L341.544,78.208 L341.544,19.84 C341.544,14.72 336.936,10.112 331.816,10.112 L331.816,10.112 Z" fill="#0FA3A8"></path>
      <path d="M9.256,0.384 C3.624,0.384 -0.472,4.992 -0.472,10.112 L-0.472,205.696 C-0.472,211.328 4.136,215.424 9.256,215.424 L36.392,215.424 L331.816,215.424 C337.448,215.424 341.544,210.816 341.544,205.696 L341.544,68.48 L341.544,10.112 C341.544,4.992 336.936,0.384 331.816,0.384 L9.256,0.384 Z" fill="#D0D1D8"></path>
      <path d="M34.344,0.384 L52.264,34.176 L288.296,34.176 L306.216,0.384 L34.344,0.384 L34.344,0.384 Z M315.261333,48.8533333 L66.9413333,48.8533333 L24.4453333,48.8533333 C18.8133333,48.8533333 13.6933333,53.9733333 13.6933333,60.1173333 L13.6933333,188.629333 C13.6933333,194.773333 18.3013333,199.893333 24.4453333,199.893333 L315.261333,199.893333 C320.893333,199.893333 326.013333,194.773333 326.013333,188.629333 L326.013333,162.517333 L326.013333,60.1173333 C325.501333,53.9733333 320.893333,48.8533333 315.261333,48.8533333 L315.261333,48.8533333 L315.261333,48.8533333 Z" fill="#0FA3A8"></path>
      <path d="M251.261333,98.3466667 L91.0053333,98.3466667 C76.6693333,98.3466667 64.8933333,110.122667 64.8933333,124.458667 C64.8933333,138.794667 76.6693333,150.570667 91.0053333,150.570667 L251.261333,150.570667 C265.597333,150.570667 277.373333,138.794667 277.373333,124.458667 C277.373333,110.122667 265.597333,98.3466667 251.261333,98.3466667 L251.261333,98.3466667 Z" fill="#D0D1D8"></path>
      <path d="M306.216,190.848 L34.344,190.848 C28.712,190.848 24.616,186.24 24.616,181.12 L24.616,171.392 C24.616,165.76 29.224,161.664 34.344,161.664 L306.216,161.664 C311.848,161.664 315.944,166.272 315.944,171.392 L315.944,181.12 C316.456,186.24 311.848,190.848 306.216,190.848 L306.216,190.848 Z" fill="#F5F6F8"></path>
      <path d="M319.016,33.152 C322.692007,33.152 325.672,30.1720073 325.672,26.496 C325.672,22.8199927 322.692007,19.84 319.016,19.84 C315.339993,19.84 312.36,22.8199927 312.36,26.496 C312.36,30.1720073 315.339993,33.152 319.016,33.152 L319.016,33.152 Z M22.056,33.152 C25.7320073,33.152 28.712,30.1720073 28.712,26.496 C28.712,22.8199927 25.7320073,19.84 22.056,19.84 C18.3799927,19.84 15.4,22.8199927 15.4,26.496 C15.4,30.1720073 18.3799927,33.152 22.056,33.152 L22.056,33.152 Z M250.408,143.402667 C261.436022,143.402667 270.376,134.462689 270.376,123.434667 C270.376,112.406645 261.436022,103.466667 250.408,103.466667 C239.379978,103.466667 230.44,112.406645 230.44,123.434667 C230.44,134.462689 239.379978,143.402667 250.408,143.402667 L250.408,143.402667 Z M91.688,143.402667 C102.716022,143.402667 111.656,134.462689 111.656,123.434667 C111.656,112.406645 102.716022,103.466667 91.688,103.466667 C80.6599781,103.466667 71.72,112.406645 71.72,123.434667 C71.72,134.462689 80.6599781,143.402667 91.688,143.402667 L91.688,143.402667 Z" fill="#092324"></path>
    </g>
  </g>
</svg>
