<svg xmlns="http://www.w3.org/2000/svg" version="1.1" width="512" height="512" viewBox="0 0 512 512">
  <mask id="mask" x="0" y="0" width="512" height="512" >
    <circle cx="256" cy="256" r="256" fill="#FFFFFF" />
  </mask>
  <g mask="url(#mask)">
    <rect fill="#C4D2C8" x="0" y="0" width="512" height="512"></rect>
    <g transform="translate(94.000000, 51.000000)">
      <path d="M2.768,314.568 L318.672,103.624 L417.991915,202.943915 L417.991907,460.669074 L148.86906,460.66906 L2.768,314.568 Z" fill="#B0BCB3"></path>
      <path d="M58.064,340.168 L69.328,340.168 L263.888,340.168 L276.176,317.64 L45.776,317.64 L58.064,340.168 Z" fill="#092324"></path>
      <rect fill="#0FA3A8" x="-0.133333333" y="100.893333" width="320.853333" height="216.746667" rx="5"></rect>
      <rect fill="#092324" x="23.76" y="123.08" width="209.92" height="170.666667" rx="19"></rect>
      <rect fill="#D0D1D8" x="37.4133333" y="135.026667" width="182.613333" height="148.48" rx="16"></rect>
      <path d="M37.4133333,234.694006 L37.4133333,162.346656 C37.4133333,147.240501 49.6313547,135.026667 64.7030478,135.026667 L192.736952,135.026667 C199.271812,135.026667 205.273769,137.329731 209.974861,141.16992 C139.149522,145.004976 76.8627341,180.945951 37.4133333,234.694006 L37.4133333,234.694006 Z" fill="#F5F6F8"></path>
      <path d="M279.76,199.88 C288.243094,199.88 295.12,193.003094 295.12,184.52 C295.12,176.036906 288.243094,169.16 279.76,169.16 C271.276906,169.16 264.4,176.036906 264.4,184.52 C264.4,193.003094 271.276906,199.88 279.76,199.88 L279.76,199.88 Z M279.76,153.8 C288.243094,153.8 295.12,146.923094 295.12,138.44 C295.12,129.956906 288.243094,123.08 279.76,123.08 C271.276906,123.08 264.4,129.956906 264.4,138.44 C264.4,146.923094 271.276906,153.8 279.76,153.8 L279.76,153.8 Z" fill="#D0D1D8"></path>
      <path d="M279.76,194.76 C285.415396,194.76 290,190.175396 290,184.52 C290,178.864604 285.415396,174.28 279.76,174.28 C274.104604,174.28 269.52,178.864604 269.52,184.52 C269.52,190.175396 274.104604,194.76 279.76,194.76 L279.76,194.76 Z M279.76,148.68 C285.415396,148.68 290,144.095396 290,138.44 C290,132.784604 285.415396,128.2 279.76,128.2 C274.104604,128.2 269.52,132.784604 269.52,138.44 C269.52,144.095396 274.104604,148.68 279.76,148.68 L279.76,148.68 Z M304.848,293.576 L251.088,293.576 C249.552,293.576 248.528,292.552 248.528,291.016 L248.528,288.456 C248.528,286.92 249.552,285.896 251.088,285.896 L305.36,285.896 C306.896,285.896 307.92,286.92 307.92,288.456 L307.92,291.016 C307.408,292.552 306.384,293.576 304.848,293.576 L304.848,293.576 Z M304.848,273.096 L251.088,273.096 C249.552,273.096 248.528,272.072 248.528,270.536 L248.528,267.976 C248.528,266.44 249.552,265.416 251.088,265.416 L305.36,265.416 C306.896,265.416 307.92,266.44 307.92,267.976 L307.92,270.536 C307.408,272.072 306.384,273.096 304.848,273.096 L304.848,273.096 Z M304.848,252.616 L251.088,252.616 C249.552,252.616 248.528,251.592 248.528,250.056 L248.528,247.496 C248.528,245.96 249.552,244.936 251.088,244.936 L305.36,244.936 C306.896,244.936 307.92,245.96 307.92,247.496 L307.92,250.056 C307.408,251.592 306.384,252.616 304.848,252.616 L304.848,252.616 Z M304.848,232.136 L251.088,232.136 C249.552,232.136 248.528,231.112 248.528,229.576 L248.528,227.016 C248.528,225.48 249.552,224.456 251.088,224.456 L305.36,224.456 C306.896,224.456 307.92,225.48 307.92,227.016 L307.92,229.576 C307.408,231.112 306.384,232.136 304.848,232.136 L304.848,232.136 Z M137.936,101.064 C137.936,88.264 148.176,78.024 160.976,78.024 C173.776,78.024 184.016,88.264 184.016,101.064 L137.936,101.064 L137.936,101.064 Z" fill="#092324"></path>
      <path d="M145.616,85.192 L60.112,-0.312 M176.336,85.192 L261.84,-0.312" stroke="#092324" stroke-width="2"></path>
    </g>
  </g>
</svg>
